<?xml version="1.0" standalone="no"?>
<!DOCTYPE svg PUBLIC "-//W3C//DTD SVG 20010904//EN"
 "http://www.w3.org/TR/2001/REC-SVG-20010904/DTD/svg10.dtd">
<svg version="1.0" xmlns="http://www.w3.org/2000/svg"
 width="332.000000pt" height="332.000000pt" viewBox="0 0 332.000000 332.000000"
 preserveAspectRatio="xMidYMid meet">
<metadata>
Created by potrace 1.14, written by Peter Selinger 2001-2017
</metadata>
<g transform="translate(0.000000,332.000000) scale(0.100000,-0.100000)"
fill="#000000" stroke="none">
<path d="M1400 3300 c-701 -118 -1233 -645 -1368 -1355 -24 -127 -23 -454 1
-580 66 -336 220 -633 452 -869 267 -271 585 -429 975 -486 113 -16 401 -5
523 19 481 97 882 389 1129 824 89 156 163 372 192 564 17 111 18 360 1 478
-57 405 -266 778 -586 1046 -184 154 -425 274 -679 338 -165 42 -459 51 -640
21z"/>
</g>
</svg>
